<?xml version="1.0" standalone="no"?>
<!DOCTYPE svg PUBLIC "-//W3C//DTD SVG 20010904//EN"
 "http://www.w3.org/TR/2001/REC-SVG-20010904/DTD/svg10.dtd">
<svg version="1.0" xmlns="http://www.w3.org/2000/svg"
 width="512.000000pt" height="512.000000pt" viewBox="0 0 512.000000 512.000000"
 preserveAspectRatio="xMidYMid meet">
<metadata>
Created by potrace 1.14, written by Peter Selinger 2001-2017
</metadata>
<g transform="translate(0.000000,512.000000) scale(0.100000,-0.100000)"
fill="#000000" stroke="none">
<path d="M953 5106 c-131 -41 -226 -148 -248 -277 -8 -46 -9 -4500 -1 -4535
23 -103 72 -179 150 -232 97 -65 -15 -61 1721 -59 l1580 2 55 26 c98 46 170
128 199 229 11 36 13 467 13 2295 0 2089 -1 2255 -17 2311 -30 109 -112 193
-225 234 -54 19 -91 19 -1620 19 -1268 0 -1573 -3 -1607 -13z m1820 -1496
c331 -73 597 -277 741 -567 82 -165 114 -303 114 -483 1 -292 -106 -549 -312
-756 -147 -146 -298 -231 -506 -285 -97 -26 -330 -35 -415 -18 -27 6 -60 12
-71 15 -237 48 -479 207 -631 414 -67 92 -148 261 -169 355 -23 97 -32 169
-33 257 -7 399 202 760 555 958 94 53 233 99 374 123 66 12 276 4 353 -13z
m403 -3215 c13 -13 24 -31 24 -39 0 -27 -23 -65 -42 -72 -25 -8 -1170 -8
-1196 0 -19 6 -42 45 -42 72 0 8 11 26 25 40 l24 24 591 0 591 0 25 -25z"/>
<path d="M2407 3480 c-190 -32 -379 -132 -513 -272 -137 -144 -207 -277 -248
-473 -15 -70 -16 -285 -2 -350 84 -386 375 -672 756 -743 48 -9 265 -9 318 0
348 59 634 317 738 665 22 72 27 113 30 223 3 127 1 149 -31 290 -27 122 -160
333 -275 437 -93 84 -260 171 -404 210 -68 18 -290 26 -369 13z m201 -180 c22
-21 22 -24 22 -367 l0 -346 67 -76 c37 -42 70 -78 73 -81 3 -3 36 -40 73 -82
68 -79 79 -109 55 -140 -42 -51 -83 -41 -150 35 -29 34 -62 71 -73 83 -11 11
-49 54 -85 95 -36 40 -73 83 -82 93 -17 18 -18 52 -18 392 0 371 0 373 22 394
12 11 34 20 48 20 14 0 36 -9 48 -20z"/>
</g>
</svg>
